<?xml version="1.0" encoding="UTF-8"?>
<svg width="73px" height="68px" viewBox="0 0 73 68" version="1.1" xmlns="http://www.w3.org/2000/svg" xmlns:xlink="http://www.w3.org/1999/xlink">
    <!-- Generator: Sketch 48.2 (47327) - http://www.bohemiancoding.com/sketch -->
    <title>Page 1</title>
    <desc>Created with Sketch.</desc>
    <defs>
        <polygon id="path-1" points="0 0.5439 63.7094588 0.5439 63.7094588 66.9999 0 66.9999"></polygon>
        <polygon id="path-3" points="0.9398 0.611 59.3848 0.611 59.3848 48.7538 0.9398 48.7538"></polygon>
    </defs>
    <g id="Home" stroke="none" stroke-width="1" fill="none" fill-rule="evenodd" transform="translate(-1586.000000, -988.000000)">
        <g id="Group-4" transform="translate(0.000000, 740.000000)">
            <g id="Group" transform="translate(300.000000, 181.000000)">
                <g id="Page-1" transform="translate(1286.000000, 66.000000)">
                    <path d="M62.5439,25.1881 C61.5449,22.1101 56.9979,20.8131 55.1329,18.2511 C53.2489,15.6631 53.4069,10.9431 50.8189,9.0591 C48.2559,7.1941 43.8269,8.7911 40.7479,7.7911 C37.7779,6.8271 35.1479,2.9001 31.8549,2.9001 C28.5619,2.9001 25.9309,6.8271 22.9599,7.7911 C19.8819,8.7911 15.4519,7.1961 12.8889,9.0601 C10.3009,10.9441 10.4589,15.6631 8.5759,18.2511 C6.7099,20.8141 2.1629,22.1111 1.1649,25.1901 C0.1999,28.1601 3.0839,31.8691 3.0839,35.1611 C3.0839,38.4541 0.1999,42.1621 1.1649,45.1351 C2.1649,48.2121 6.7109,49.5101 8.5759,52.0721 C10.4599,54.6601 10.3009,59.3801 12.8899,61.2641 C15.4529,63.1281 19.8819,61.5311 22.9609,62.5311 C25.9309,63.4961 28.5619,67.4231 31.8549,67.4231 C35.1479,67.4231 37.7779,63.4961 40.7489,62.5311 C43.8269,61.5311 48.2569,63.1271 50.8199,61.2621 C53.4069,59.3781 53.2509,54.6601 55.1329,52.0721 C56.9989,49.5091 61.5459,48.2111 62.5439,45.1321 C63.5089,42.1621 60.6249,38.4541 60.6249,35.1611 C60.6249,31.8691 63.5089,28.1601 62.5439,25.1881" id="Fill-1" fill="#FFFFFF"></path>
                    <g id="Group-5" transform="translate(0.000000, 1.389300)">
                        <mask id="mask-2" fill="white">
                            <use xlink:href="#path-1"></use>
                        </mask>
                        <g id="Clip-4"></g>
                        <path d="M19.9966,59.8129 C21.1226,59.8129 22.2376,59.8909 23.2596,60.2219 C24.6706,60.6809 25.9556,61.6859 27.1986,62.6569 C28.7836,63.8959 30.2796,65.0669 31.8546,65.0669 C33.4286,65.0669 34.9246,63.8969 36.5096,62.6579 C37.7536,61.6859 39.0386,60.6809 40.4516,60.2219 C41.9306,59.7419 43.6066,59.7939 45.2306,59.8439 C47.1966,59.9029 49.0556,59.9609 50.2516,59.0909 C51.4656,58.2069 51.9866,56.4109 52.5366,54.5079 C52.9846,52.9589 53.4486,51.3559 54.3516,50.1139 C55.2436,48.8889 56.6136,47.9639 57.9376,47.0699 C59.5906,45.9549 61.1526,44.9009 61.6246,43.4449 C62.0696,42.0739 61.4486,40.3449 60.7896,38.5149 C60.2346,36.9669 59.6586,35.3659 59.6586,33.7719 C59.6586,32.1779 60.2346,30.5779 60.7896,29.0289 C61.4486,27.1979 62.0706,25.4689 61.6246,24.0969 C61.1526,22.6419 59.5896,21.5879 57.9376,20.4729 C56.6126,19.5789 55.2436,18.6539 54.3516,17.4299 C53.4476,16.1879 52.9836,14.5839 52.5356,13.0349 C51.9846,11.1319 51.4646,9.3359 50.2496,8.4519 C49.0536,7.5809 47.1966,7.6389 45.2306,7.6999 C43.6086,7.7499 41.9306,7.8019 40.4506,7.3209 C39.0386,6.8629 37.7526,5.8579 36.5096,4.8869 C34.9246,3.6479 33.4286,2.4779 31.8546,2.4779 C30.2806,2.4779 28.7836,3.6469 27.1996,4.8859 C25.9556,5.8579 24.6706,6.8629 23.2576,7.3209 C21.7786,7.8029 20.1006,7.7509 18.4786,7.7009 C16.5106,7.6389 14.6536,7.5829 13.4566,8.4529 C12.2426,9.3369 11.7236,11.1339 11.1726,13.0359 C10.7246,14.5849 10.2616,16.1879 9.3576,17.4299 C8.4666,18.6549 7.0966,19.5789 5.7716,20.4729 C4.1186,21.5889 2.5566,22.6429 2.0846,24.0989 C1.6396,25.4699 2.2606,27.1989 2.9186,29.0299 C3.4756,30.5779 4.0506,32.1779 4.0506,33.7719 C4.0506,35.3649 3.4756,36.9659 2.9186,38.5139 C2.2606,40.3449 1.6396,42.0759 2.0836,43.4469 C2.5566,44.9019 4.1186,45.9559 5.7716,47.0709 C7.0966,47.9649 8.4666,48.8889 9.3576,50.1139 C10.2616,51.3559 10.7256,52.9589 11.1736,54.5089 C11.7236,56.4109 12.2436,58.2089 13.4586,59.0919 C14.6546,59.9629 16.5106,59.9049 18.4796,59.8439 C18.9816,59.8289 19.4906,59.8129 19.9966,59.8129 M31.8546,66.9999 C29.6136,66.9999 27.7806,65.5669 26.0076,64.1799 C24.8466,63.2719 23.7486,62.4149 22.6626,62.0619 C21.5026,61.6849 20.0626,61.7299 18.5396,61.7769 C16.3316,61.8439 14.0526,61.9159 12.3206,60.6559 C10.5696,59.3809 9.9326,57.1769 9.3156,55.0459 C8.8956,53.5919 8.4986,52.2189 7.7936,51.2509 C7.1036,50.3019 5.9316,49.5109 4.6896,48.6739 C2.8386,47.4239 0.9236,46.1319 0.2456,44.0429 C-0.4044,42.0429 0.3596,39.9169 1.0996,37.8599 C1.5996,36.4679 2.1166,35.0289 2.1166,33.7719 C2.1166,32.5159 1.5996,31.0759 1.0996,29.6839 C0.3596,27.6269 -0.4044,25.5009 0.2456,23.5019 C0.9226,21.4129 2.8376,20.1209 4.6896,18.8709 C5.9306,18.0329 7.1026,17.2419 7.7936,16.2919 C8.4976,15.3249 8.8946,13.9519 9.3156,12.4989 C9.9326,10.3679 10.5696,8.1639 12.3196,6.8899 C14.0526,5.6289 16.3316,5.6999 18.5386,5.7679 C20.0596,5.8139 21.5006,5.8579 22.6606,5.4819 C23.7486,5.1289 24.8466,4.2709 26.0086,3.3629 C27.7806,1.9769 29.6136,0.5439 31.8546,0.5439 C34.0946,0.5439 35.9276,1.9769 37.7016,3.3629 C38.8626,4.2709 39.9596,5.1289 41.0466,5.4819 C42.2066,5.8589 43.6476,5.8149 45.1696,5.7679 C47.3776,5.6979 49.6566,5.6279 51.3876,6.8879 C53.1386,8.1629 53.7756,10.3659 54.3926,12.4969 C54.8126,13.9509 55.2096,15.3239 55.9146,16.2919 C56.6066,17.2419 57.7776,18.0319 59.0196,18.8699 C60.8716,20.1189 62.7856,21.4109 63.4646,23.4999 C64.1136,25.4999 63.3486,27.6269 62.6096,29.6839 C62.1096,31.0759 61.5916,32.5159 61.5916,33.7719 C61.5916,35.0289 62.1096,36.4679 62.6096,37.8609 C63.3486,39.9169 64.1136,42.0419 63.4646,44.0419 C62.7866,46.1299 60.8716,47.4229 59.0196,48.6719 C57.7786,49.5099 56.6066,50.3009 55.9146,51.2509 C55.2106,52.2189 54.8136,53.5919 54.3936,55.0449 C53.7776,57.1769 53.1396,59.3799 51.3896,60.6549 C49.6576,61.9149 47.3776,61.8439 45.1696,61.7759 C43.6466,61.7279 42.2066,61.6859 41.0476,62.0619 C39.9596,62.4149 38.8626,63.2729 37.7016,64.1809 C35.9276,65.5669 34.0946,66.9999 31.8546,66.9999" id="Fill-3" fill="#00ADDA" mask="url(#mask-2)"></path>
                    </g>
                    <path d="M32.7412,12.2779 C32.7632,11.8489 33.1372,11.5399 33.5572,11.5699 C33.9792,11.5989 34.2962,11.9579 34.2662,12.3779 C34.2362,12.8069 33.8792,13.1169 33.4502,13.0869 C33.0292,13.0569 32.7112,12.7059 32.7412,12.2779" id="Fill-6" fill="#00ADDA"></path>
                    <path d="M36.416,12.7164 C36.508,12.2974 36.926,12.0524 37.337,12.1504 C37.747,12.2474 38.002,12.6524 37.905,13.0624 C37.806,13.4804 37.402,13.7294 36.984,13.6304 C36.574,13.5314 36.317,13.1344 36.416,12.7164" id="Fill-8" fill="#00ADDA"></path>
                    <path d="M39.9609,13.7384 C40.1189,13.3394 40.5699,13.1644 40.9599,13.3274 C41.3499,13.4894 41.5369,13.9294 41.3739,14.3194 C41.2089,14.7164 40.7719,14.8954 40.3749,14.7304 C39.9849,14.5684 39.7959,14.1344 39.9609,13.7384" id="Fill-10" fill="#00ADDA"></path>
                    <path d="M43.2949,15.3214 C43.5159,14.9534 43.9889,14.8544 44.3469,15.0764 C44.7049,15.3004 44.8179,15.7654 44.5949,16.1234 C44.3679,16.4874 43.9069,16.5944 43.5429,16.3674 C43.1849,16.1444 43.0679,15.6854 43.2949,15.3214" id="Fill-12" fill="#00ADDA"></path>
                    <path d="M46.3359,17.421 C46.6129,17.094 47.0979,17.072 47.4149,17.35 C47.7319,17.628 47.7699,18.105 47.4909,18.422 C47.2089,18.746 46.7359,18.777 46.4129,18.494 C46.0949,18.216 46.0529,17.745 46.3359,17.421" id="Fill-14" fill="#00ADDA"></path>
                    <path d="M49.0058,19.9874 C49.3318,19.7084 49.8138,19.7634 50.0828,20.0894 C50.3528,20.4144 50.3128,20.8914 49.9858,21.1604 C49.6558,21.4344 49.1848,21.3904 48.9098,21.0584 C48.6408,20.7344 48.6748,20.2614 49.0058,19.9874" id="Fill-16" fill="#00ADDA"></path>
                    <path d="M51.2168,22.9293 C51.5828,22.7053 52.0488,22.8373 52.2628,23.2013 C52.4768,23.5643 52.3618,24.0293 51.9968,24.2433 C51.6268,24.4603 51.1688,24.3413 50.9508,23.9713 C50.7378,23.6073 50.8468,23.1463 51.2168,22.9293" id="Fill-18" fill="#00ADDA"></path>
                    <path d="M52.9345,26.2042 C53.3315,26.0422 53.7705,26.2482 53.9215,26.6412 C54.0745,27.0362 53.8845,27.4752 53.4915,27.6262 C53.0905,27.7812 52.6585,27.5892 52.5035,27.1892 C52.3525,26.7952 52.5345,26.3582 52.9345,26.2042" id="Fill-20" fill="#00ADDA"></path>
                    <path d="M54.0966,29.6988 C54.5156,29.6028 54.9146,29.8768 55.0006,30.2898 C55.0876,30.7028 54.8296,31.1058 54.4166,31.1918 C53.9966,31.2808 53.6016,31.0208 53.5126,30.6008 C53.4266,30.1888 53.6766,29.7858 54.0966,29.6988" id="Fill-22" fill="#00ADDA"></path>
                    <path d="M54.6836,33.3487 C55.1126,33.3227 55.4626,33.6557 55.4826,34.0777 C55.5016,34.4987 55.1826,34.8557 54.7616,34.8757 C54.3316,34.8947 53.9826,34.5757 53.9626,34.1467 C53.9436,33.7247 54.2546,33.3687 54.6836,33.3487" id="Fill-24" fill="#00ADDA"></path>
                    <path d="M54.6777,37.0465 C55.1057,37.0885 55.3977,37.4745 55.3497,37.8935 C55.3007,38.3125 54.9287,38.6145 54.5097,38.5655 C54.0827,38.5165 53.7887,38.1455 53.8377,37.7185 C53.8867,37.2995 54.2507,36.9975 54.6777,37.0465" id="Fill-26" fill="#00ADDA"></path>
                    <path d="M54.081,40.6895 C54.496,40.7995 54.723,41.2265 54.608,41.6325 C54.492,42.0395 54.077,42.2765 53.672,42.1615 C53.258,42.0445 53.027,41.6305 53.144,41.2185 C53.26,40.8125 53.668,40.5725 54.081,40.6895" id="Fill-28" fill="#00ADDA"></path>
                    <path d="M52.9043,44.1886 C53.2963,44.3646 53.4513,44.8226 53.2713,45.2056 C53.0913,45.5856 52.6443,45.7536 52.2613,45.5756 C51.8733,45.3926 51.7133,44.9476 51.8953,44.5586 C52.0743,44.1766 52.5153,44.0056 52.9043,44.1886" id="Fill-30" fill="#00ADDA"></path>
                    <path d="M51.1767,47.4571 C51.5337,47.6941 51.6137,48.1721 51.3737,48.5201 C51.1347,48.8681 50.6647,48.9611 50.3177,48.7221 C49.9627,48.4791 49.8757,48.0141 50.1187,47.6601 C50.3587,47.3111 50.8227,47.2151 51.1767,47.4571" id="Fill-32" fill="#00ADDA"></path>
                    <path d="M48.9482,50.3995 C49.2632,50.6915 49.2652,51.1745 48.9732,51.4805 C48.6812,51.7865 48.2042,51.8025 47.8982,51.5105 C47.5882,51.2145 47.5772,50.7415 47.8732,50.4305 C48.1652,50.1255 48.6372,50.1035 48.9482,50.3995" id="Fill-34" fill="#00ADDA"></path>
                    <path d="M46.2675,52.9561 C46.5325,53.2941 46.4555,53.7711 46.1195,54.0261 C45.7835,54.2811 45.3085,54.2211 45.0535,53.8841 C44.7945,53.5421 44.8605,53.0731 45.2025,52.8141 C45.5385,52.5601 46.0085,52.6131 46.2675,52.9561" id="Fill-36" fill="#00ADDA"></path>
                    <path d="M43.2265,55.0421 C43.4335,55.4191 43.2815,55.8781 42.9085,56.0751 C42.5345,56.2721 42.0755,56.1371 41.8785,55.7641 C41.6775,55.3841 41.8165,54.9321 42.1965,54.7301 C42.5695,54.5331 43.0255,54.6631 43.2265,55.0421" id="Fill-38" fill="#00ADDA"></path>
                    <path d="M39.8857,56.6134 C40.0307,57.0174 39.8067,57.4474 39.4067,57.5824 C39.0057,57.7174 38.5737,57.5094 38.4397,57.1084 C38.3027,56.7014 38.5127,56.2774 38.9197,56.1394 C39.3197,56.0054 39.7487,56.2064 39.8857,56.6134" id="Fill-40" fill="#00ADDA"></path>
                    <path d="M36.3398,57.6212 C36.4168,58.0442 36.1258,58.4312 35.7098,58.4992 C35.2928,58.5672 34.9018,58.2922 34.8328,57.8762 C34.7638,57.4522 35.0398,57.0672 35.4638,56.9982 C35.8798,56.9302 36.2708,57.1972 36.3398,57.6212" id="Fill-42" fill="#00ADDA"></path>
                    <path d="M32.7002,58.0343 C32.7152,58.4633 32.3712,58.8033 31.9492,58.8103 C31.5282,58.8173 31.1802,58.4883 31.1732,58.0673 C31.1662,57.6383 31.4952,57.2983 31.9242,57.2903 C32.3462,57.2833 32.6932,57.6043 32.7002,58.0343" id="Fill-44" fill="#00ADDA"></path>
                    <path d="M28.9824,57.8839 C28.9224,58.3089 28.5244,58.5849 28.1074,58.5179 C27.6904,58.4509 27.4054,58.0669 27.4714,57.6499 C27.5394,57.2259 27.9224,56.9469 28.3474,57.0159 C28.7644,57.0819 29.0504,57.4589 28.9824,57.8839" id="Fill-46" fill="#00ADDA"></path>
                    <path d="M25.374,57.13 C25.246,57.54 24.809,57.748 24.409,57.615 C24.008,57.483 23.789,57.058 23.921,56.657 C24.056,56.249 24.478,56.037 24.887,56.172 C25.287,56.305 25.509,56.723 25.374,57.13" id="Fill-48" fill="#00ADDA"></path>
                    <path d="M21.9277,55.8018 C21.7347,56.1858 21.2697,56.3198 20.8967,56.1238 C20.5227,55.9288 20.3747,55.4738 20.5707,55.0998 C20.7697,54.7198 21.2207,54.5778 21.6017,54.7778 C21.9747,54.9728 22.1267,55.4208 21.9277,55.8018" id="Fill-50" fill="#00ADDA"></path>
                    <path d="M18.7299,53.9288 C18.4779,54.2768 17.9969,54.3348 17.6599,54.0808 C17.3219,53.8268 17.2499,53.3548 17.5029,53.0168 C17.7609,52.6728 18.2299,52.6068 18.5729,52.8648 C18.9109,53.1178 18.9879,53.5848 18.7299,53.9288" id="Fill-52" fill="#00ADDA"></path>
                    <path d="M15.8877,51.5763 C15.5837,51.8803 15.0997,51.8603 14.8077,51.5553 C14.5147,51.2513 14.5187,50.7723 14.8227,50.4803 C15.1327,50.1823 15.6057,50.1913 15.9037,50.5013 C16.1967,50.8053 16.1977,51.2793 15.8877,51.5763" id="Fill-54" fill="#00ADDA"></path>
                    <path d="M13.4585,48.7999 C13.1095,49.0499 12.6365,48.9529 12.3965,48.6069 C12.1555,48.2589 12.2365,47.7869 12.5835,47.5479 C12.9365,47.3039 13.4015,47.3879 13.6455,47.7409 C13.8865,48.0879 13.8115,48.5549 13.4585,48.7999" id="Fill-56" fill="#00ADDA"></path>
                    <path d="M11.5009,45.6641 C11.1159,45.8551 10.6639,45.6831 10.4829,45.3021 C10.3019,44.9201 10.4569,44.4681 10.8379,44.2861 C11.2269,44.1021 11.6719,44.2611 11.8569,44.6491 C12.0379,45.0301 11.8889,45.4801 11.5009,45.6641" id="Fill-58" fill="#00ADDA"></path>
                    <path d="M10.0781,42.2628 C9.6671,42.3888 9.2491,42.1468 9.1311,41.7418 C9.0141,41.3358 9.2401,40.9138 9.6451,40.7968 C10.0581,40.6768 10.4721,40.9068 10.5921,41.3178 C10.7091,41.7228 10.4901,42.1428 10.0781,42.2628" id="Fill-60" fill="#00ADDA"></path>
                    <path d="M9.2212,38.6524 C8.7962,38.7104 8.4232,38.4024 8.3732,37.9844 C8.3242,37.5654 8.6152,37.1864 9.0342,37.1364 C9.4602,37.0864 9.8312,37.3794 9.8832,37.8044 C9.9322,38.2234 9.6472,38.6014 9.2212,38.6524" id="Fill-62" fill="#00ADDA"></path>
                    <path d="M8.9565,34.9864 C8.5275,34.9764 8.2065,34.6144 8.2235,34.1924 C8.2405,33.7714 8.5885,33.4434 9.0105,33.4594 C9.4385,33.4774 9.7605,33.8244 9.7435,34.2534 C9.7265,34.6754 9.3855,35.0044 8.9565,34.9864" id="Fill-64" fill="#00ADDA"></path>
                    <path d="M9.2798,31.2989 C8.8578,31.2199 8.5998,30.8109 8.6848,30.3969 C8.7698,29.9839 9.1658,29.7159 9.5798,29.7999 C10.0008,29.8859 10.2608,30.2809 10.1758,30.7019 C10.0908,31.1149 9.7008,31.3849 9.2798,31.2989" id="Fill-66" fill="#00ADDA"></path>
                    <path d="M10.1899,27.7286 C9.7869,27.5826 9.5979,27.1376 9.7479,26.7426 C9.8979,26.3486 10.3329,26.1476 10.7269,26.2986 C11.1279,26.4506 11.3209,26.8826 11.1689,27.2836 C11.0179,27.6786 10.5909,27.8806 10.1899,27.7286" id="Fill-68" fill="#00ADDA"></path>
                    <path d="M11.6684,24.3389 C11.2934,24.1299 11.1804,23.6589 11.3924,23.2939 C11.6034,22.9289 12.0644,22.8009 12.4304,23.0129 C12.8014,23.2289 12.9224,23.6869 12.7074,24.0579 C12.4954,24.4229 12.0404,24.5539 11.6684,24.3389" id="Fill-70" fill="#00ADDA"></path>
                    <path d="M13.6655,21.2471 C13.3285,20.9811 13.2905,20.4981 13.5585,20.1721 C13.8255,19.8451 14.3015,19.7931 14.6285,20.0601 C14.9605,20.3321 15.0075,20.8041 14.7355,21.1351 C14.4675,21.4621 13.9975,21.5191 13.6655,21.2471" id="Fill-72" fill="#00ADDA"></path>
                    <path d="M16.1494,18.4967 C15.8594,18.1797 15.8994,17.6977 16.2174,17.4187 C16.5334,17.1387 17.0114,17.1637 17.2914,17.4807 C17.5744,17.8027 17.5454,18.2747 17.2224,18.5587 C16.9064,18.8387 16.4334,18.8187 16.1494,18.4967" id="Fill-74" fill="#00ADDA"></path>
                    <path d="M19.0312,16.1876 C18.7962,15.8286 18.9132,15.3586 19.2692,15.1346 C19.6262,14.9096 20.0942,15.0106 20.3192,15.3676 C20.5482,15.7306 20.4432,16.1916 20.0802,16.4206 C19.7232,16.6456 19.2602,16.5506 19.0312,16.1876" id="Fill-76" fill="#00ADDA"></path>
                    <path d="M22.2426,14.3726 C22.0696,13.9806 22.2606,13.5366 22.6486,13.3726 C23.0376,13.2086 23.4826,13.3826 23.6466,13.7716 C23.8136,14.1666 23.6356,14.6046 23.2406,14.7716 C22.8516,14.9356 22.4096,14.7676 22.2426,14.3726" id="Fill-78" fill="#00ADDA"></path>
                    <path d="M25.7041,13.0982 C25.5961,12.6832 25.8561,12.2762 26.2661,12.1762 C26.6771,12.0772 27.0871,12.3212 27.1861,12.7312 C27.2871,13.1492 27.0411,13.5532 26.6241,13.6542 C26.2141,13.7532 25.8051,13.5152 25.7041,13.0982" id="Fill-80" fill="#00ADDA"></path>
                    <path d="M29.3335,12.401 C29.2935,11.974 29.6155,11.613 30.0365,11.581 C30.4565,11.549 30.8235,11.856 30.8545,12.277 C30.8875,12.705 30.5795,13.064 30.1515,13.096 C29.7315,13.129 29.3655,12.828 29.3335,12.401" id="Fill-82" fill="#00ADDA"></path>
                    <polygon id="Fill-84" fill="#FFFFFF" points="32.4775 34.0387 22.1745 23.7357 15.3065 30.6037 32.4775 47.7757 71.0175 9.2357 64.1485 2.3677"></polygon>
                    <g id="Group-88" transform="translate(13.000000, 0.389300)">
                        <mask id="mask-4" fill="white">
                            <use xlink:href="#path-3"></use>
                        </mask>
                        <g id="Clip-87"></g>
                        <path d="M3.6738,30.2148 L19.4778,46.0178 L56.6498,8.8468 L51.1498,3.3458 L19.4778,35.0168 L9.1748,24.7138 L3.6738,30.2148 Z M19.4778,48.7538 L0.9398,30.2148 L9.1748,21.9788 L19.4778,32.2818 L51.1498,0.6108 L59.3848,8.8468 L19.4778,48.7538 Z" id="Fill-86" fill="#003555" mask="url(#mask-4)"></path>
                    </g>
                </g>
            </g>
        </g>
    </g>
</svg>