<?xml version="1.0" encoding="UTF-8"?>
<svg width="67px" height="68px" viewBox="0 0 67 68" version="1.1" xmlns="http://www.w3.org/2000/svg" xmlns:xlink="http://www.w3.org/1999/xlink">
    <!-- Generator: Sketch 48.2 (47327) - http://www.bohemiancoding.com/sketch -->
    <title>Page 1</title>
    <desc>Created with Sketch.</desc>
    <defs>
        <polygon id="path-1" points="0.0079 0.7164 66.683 0.7164 66.683 40 0.0079 40"></polygon>
        <polygon id="path-3" points="0 0.6747 66.6362931 0.6747 66.6362931 29.0317 0 29.0317"></polygon>
        <polygon id="path-5" points="0.486200585 0.285 2.30939399 0.285 2.30939399 7.9106 0.486200585 7.9106"></polygon>
    </defs>
    <g id="Home" stroke="none" stroke-width="1" fill="none" fill-rule="evenodd" transform="translate(-1198.000000, -977.000000)">
        <g id="Group-4" transform="translate(0.000000, 740.000000)">
            <g id="Group" transform="translate(300.000000, 181.000000)">
                <g id="Page-1" transform="translate(898.000000, 55.000000)">
                    <g id="Group-3" transform="translate(0.000000, 28.715300)">
                        <mask id="mask-2" fill="white">
                            <use xlink:href="#path-1"></use>
                        </mask>
                        <g id="Clip-2"></g>
                        <path d="M65.7169,40.0004 L0.9749,40.0004 C0.4409,40.0004 0.0079,39.5674 0.0079,39.0334 L0.0079,1.6834 C0.0079,1.1484 0.4409,0.7164 0.9749,0.7164 C1.5089,0.7164 1.9419,1.1484 1.9419,1.6834 L1.9419,38.0664 L64.7499,38.0664 L64.7499,1.6834 C64.7499,1.1484 65.1829,0.7164 65.7169,0.7164 C66.2509,0.7164 66.6839,1.1484 66.6839,1.6834 L66.6839,39.0334 C66.6839,39.5674 66.2509,40.0004 65.7169,40.0004" id="Fill-1" fill="#003555" mask="url(#mask-2)"></path>
                    </g>
                    <g id="Group-6" transform="translate(0.000000, 28.715300)">
                        <mask id="mask-4" fill="white">
                            <use xlink:href="#path-3"></use>
                        </mask>
                        <g id="Clip-5"></g>
                        <path d="M33.3175,29.0317 C32.2155,29.0317 31.1135,28.6737 30.2755,27.9567 L0.3385,2.3757 C0.0305,2.1127 -0.0805,1.6857 0.0595,1.3057 C0.1995,0.9267 0.5625,0.6747 0.9665,0.6747 L28.3515,0.6747 C28.8855,0.6747 29.3185,1.1067 29.3185,1.6407 C29.3185,2.1757 28.8855,2.6077 28.3515,2.6077 L3.5865,2.6077 L31.5315,26.4867 C32.4995,27.3147 34.1365,27.3137 35.1065,26.4867 L63.0505,2.6077 L37.8945,2.6077 C37.3595,2.6077 36.9275,2.1757 36.9275,1.6407 C36.9275,1.1067 37.3595,0.6747 37.8945,0.6747 L65.6705,0.6747 C66.0745,0.6747 66.4365,0.9267 66.5765,1.3057 C66.7165,1.6857 66.6055,2.1127 66.2975,2.3757 L36.3625,27.9577 C35.5225,28.6737 34.4195,29.0317 33.3175,29.0317" id="Fill-4" fill="#003555" mask="url(#mask-4)"></path>
                    </g>
                    <path d="M1.2199,68.454 C0.9489,68.454 0.6789,68.341 0.4889,68.12 C0.1389,67.717 0.1829,67.105 0.5869,66.756 L22.1359,48.116 C22.5389,47.767 23.1509,47.811 23.4999,48.216 C23.8489,48.619 23.8049,49.229 23.4019,49.579 L1.8519,68.219 C1.6689,68.377 1.4439,68.454 1.2199,68.454" id="Fill-7" fill="#003555"></path>
                    <path d="M65.6642,68.454 C65.4402,68.454 65.2152,68.377 65.0322,68.219 L43.4812,49.579 C43.0772,49.229 43.0332,48.619 43.3822,48.216 C43.7302,47.811 44.3422,47.767 44.7462,48.116 L66.2972,66.756 C66.7012,67.105 66.7452,67.717 66.3952,68.12 C66.2042,68.341 65.9352,68.454 65.6642,68.454" id="Fill-9" fill="#003555"></path>
                    <polygon id="Fill-11" fill="#00ADDA" points="38.5568 22.2186 33.3418 17.0036 28.1268 22.2186 29.5428 23.6346 32.3408 20.8376 32.3408 42.0576 34.3438 42.0576 34.3438 20.8376 37.1408 23.6346"></polygon>
                    <polygon id="Fill-13" fill="#00ADDA" points="33.6652 1.6532 33.5542 7.9822 33.1302 7.9742 33.2412 1.6452"></polygon>
                    <g id="Group-17" transform="translate(32.000000, 0.715300)">
                        <mask id="mask-6" fill="white">
                            <use xlink:href="#path-5"></use>
                        </mask>
                        <g id="Clip-16"></g>
                        <path d="M1.5543,7.9106 L1.5433,7.9106 L1.1193,7.9036 C0.9493,7.9006 0.7853,7.8296 0.6673,7.7066 C0.5483,7.5836 0.4833,7.4186 0.4863,7.2476 L0.5963,0.9186 C0.5993,0.7476 0.6703,0.5846 0.7933,0.4666 C0.9163,0.3476 1.0743,0.2756 1.2533,0.2856 L1.6773,0.2936 C2.0333,0.3006 2.3153,0.5946 2.3093,0.9496 L2.1983,7.2776 C2.1923,7.6296 1.9053,7.9106 1.5543,7.9106" id="Fill-15" fill="#00ADDA" mask="url(#mask-6)"></path>
                    </g>
                    <polygon id="Fill-18" fill="#00ADDA" points="48.3136 4.3881 46.1226 10.3181 45.7256 10.1721 47.9166 4.2421"></polygon>
                    <path d="M46.1232,10.9633 C46.0492,10.9633 45.9742,10.9503 45.9002,10.9233 L45.5032,10.7763 C45.3422,10.7173 45.2112,10.5973 45.1402,10.4423 C45.0682,10.2863 45.0612,10.1093 45.1202,9.9483 L47.3112,4.0183 C47.4352,3.6843 47.8052,3.5143 48.1392,3.6363 L48.5362,3.7833 C48.6962,3.8423 48.8272,3.9623 48.8982,4.1173 C48.9712,4.2733 48.9772,4.4503 48.9182,4.6113 L46.7272,10.5413 C46.6312,10.8023 46.3852,10.9633 46.1232,10.9633" id="Fill-20" fill="#00ADDA"></path>
                    <polygon id="Fill-22" fill="#00ADDA" points="61.1925 11.9999 57.0985 16.8239 56.7765 16.5499 60.8695 11.7259"></polygon>
                    <path d="M57.0988,17.4691 C56.9458,17.4691 56.7978,17.4151 56.6808,17.3151 L56.3588,17.0401 C56.0868,16.8101 56.0548,16.4041 56.2848,16.1331 L60.3788,11.3091 C60.6088,11.0371 61.0158,11.0051 61.2868,11.2351 L61.6098,11.5091 C61.7408,11.6191 61.8218,11.7771 61.8348,11.9481 C61.8488,12.1171 61.7948,12.2871 61.6838,12.4171 L57.5898,17.2411 C57.4798,17.3721 57.3218,17.4531 57.1508,17.4671 C57.1338,17.4681 57.1168,17.4691 57.0988,17.4691" id="Fill-24" fill="#00ADDA"></path>
                    <polygon id="Fill-26" fill="#00ADDA" points="5.8175 11.4525 9.8675 16.3205 9.5405 16.5925 5.4915 11.7235"></polygon>
                    <path d="M9.5412,17.2367 C9.3562,17.2367 9.1732,17.1577 9.0452,17.0047 L4.9962,12.1357 C4.8862,12.0047 4.8342,11.8347 4.8492,11.6647 C4.8652,11.4947 4.9482,11.3377 5.0802,11.2287 L5.4062,10.9567 C5.6792,10.7287 6.0852,10.7667 6.3132,11.0407 L10.3632,15.9087 C10.4722,16.0397 10.5252,16.2097 10.5092,16.3797 C10.4942,16.5497 10.4112,16.7067 10.2792,16.8167 L9.9532,17.0877 C9.8332,17.1877 9.6872,17.2367 9.5412,17.2367" id="Fill-28" fill="#00ADDA"></path>
                    <polygon id="Fill-30" fill="#00ADDA" points="18.8576 4.0971 20.9816 10.0501 20.5836 10.1921 18.4586 4.2391"></polygon>
                    <path d="M20.5831,10.8368 C20.3181,10.8368 20.0701,10.6718 19.9761,10.4088 L17.8521,4.4558 C17.7321,4.1208 17.9071,3.7518 18.2421,3.6328 L18.6401,3.4898 C18.8011,3.4328 18.9791,3.4408 19.1331,3.5148 C19.2881,3.5878 19.4071,3.7188 19.4641,3.8798 L21.5891,9.8338 C21.6461,9.9948 21.6371,10.1718 21.5641,10.3258 C21.4911,10.4808 21.3591,10.5998 21.1981,10.6568 L20.7991,10.7988 C20.7281,10.8248 20.6551,10.8368 20.5831,10.8368" id="Fill-32" fill="#00ADDA"></path>
                </g>
            </g>
        </g>
    </g>
</svg>