<?xml version="1.0" encoding="UTF-8"?>
<svg width="81px" height="62px" viewBox="0 0 81 62" version="1.1" xmlns="http://www.w3.org/2000/svg" xmlns:xlink="http://www.w3.org/1999/xlink">
    <!-- Generator: Sketch 48.2 (47327) - http://www.bohemiancoding.com/sketch -->
    <title>Page 1</title>
    <desc>Created with Sketch.</desc>
    <defs>
        <polygon id="path-1" points="0.5576 0.1902 20.2536 0.1902 20.2536 24 0.5576 24"></polygon>
        <polygon id="path-3" points="0.8402 0.8502 22.2282 0.8502 22.2282 24 0.8402 24"></polygon>
        <polygon id="path-5" points="0 61.2957 80.797 61.2957 80.797 -0.0003 0 -0.0003"></polygon>
    </defs>
    <g id="Home" stroke="none" stroke-width="1" fill="none" fill-rule="evenodd" transform="translate(-791.000000, -984.000000)">
        <g id="Group-4" transform="translate(0.000000, 740.000000)">
            <g id="Group" transform="translate(300.000000, 181.000000)">
                <g id="Page-1" transform="translate(491.000000, 63.000000)">
                    <path d="M18.3564,24.2397 C17.8224,24.2397 17.3894,23.8067 17.3894,23.2727 L17.3894,1.1817 C17.3894,0.6477 17.8224,0.2147 18.3564,0.2147 L27.2254,0.2147 C27.7594,0.2147 28.1924,0.6477 28.1924,1.1817 L28.1924,14.0327 C28.1924,14.5667 27.7594,14.9997 27.2254,14.9997 C26.6914,14.9997 26.2584,14.5667 26.2584,14.0327 L26.2584,2.1487 L19.3234,2.1487 L19.3234,23.2727 C19.3234,23.8067 18.8904,24.2397 18.3564,24.2397" id="Fill-1" fill="#00ADDA"></path>
                    <g id="Group-5" transform="translate(13.000000, 37.295700)">
                        <mask id="mask-2" fill="white">
                            <use xlink:href="#path-1"></use>
                        </mask>
                        <g id="Clip-4"></g>
                        <path d="M19.2866,24.0002 L1.5246,24.0002 C0.9906,24.0002 0.5576,23.5672 0.5576,23.0332 L0.5576,1.1572 C0.5576,0.6232 0.9906,0.1902 1.5246,0.1902 C2.0586,0.1902 2.4916,0.6232 2.4916,1.1572 L2.4916,22.0662 L19.2866,22.0662 C19.8206,22.0662 20.2536,22.4992 20.2536,23.0332 C20.2536,23.5672 19.8206,24.0002 19.2866,24.0002" id="Fill-3" fill="#00ADDA" mask="url(#mask-2)"></path>
                    </g>
                    <g id="Group-8" transform="translate(45.000000, 37.295700)">
                        <mask id="mask-4" fill="white">
                            <use xlink:href="#path-3"></use>
                        </mask>
                        <g id="Clip-7"></g>
                        <path d="M21.2612,24.0002 L1.8072,24.0002 C1.2722,24.0002 0.8402,23.5672 0.8402,23.0332 C0.8402,22.4992 1.2722,22.0662 1.8072,22.0662 L20.2942,22.0662 L20.2942,1.8172 C20.2942,1.2832 20.7272,0.8502 21.2612,0.8502 C21.7952,0.8502 22.2282,1.2832 22.2282,1.8172 L22.2282,23.0332 C22.2282,23.5672 21.7952,24.0002 21.2612,24.0002" id="Fill-6" fill="#00ADDA" mask="url(#mask-4)"></path>
                    </g>
                    <path d="M40.5293,11.8252 C40.7853,11.8252 41.0313,11.9272 41.2133,12.1082 L67.1363,38.0322 L71.6823,33.4872 L40.5293,2.3342 L9.3763,33.4872 L13.9223,38.0322 L39.8453,12.1082 C40.0273,11.9272 40.2733,11.8252 40.5293,11.8252 M67.1363,40.3662 C66.8803,40.3662 66.6343,40.2642 66.4523,40.0842 L40.5293,14.1592 L14.6063,40.0842 C14.2433,40.4452 13.6013,40.4452 13.2383,40.0842 L7.3253,34.1702 C6.9473,33.7932 6.9473,33.1802 7.3253,32.8032 L39.8453,0.2832 C40.2233,-0.0938 40.8353,-0.0938 41.2133,0.2832 L73.7333,32.8032 C74.1113,33.1802 74.1113,33.7932 73.7333,34.1702 L67.8203,40.0842 C67.6383,40.2642 67.3933,40.3662 67.1363,40.3662" id="Fill-9" fill="#083555"></path>
                    <mask id="mask-6" fill="white">
                        <use xlink:href="#path-5"></use>
                    </mask>
                    <g id="Clip-12"></g>
                    <path d="M33.486,59.3627 L46.931,59.3627 L46.931,36.3947 L33.486,36.3947 L33.486,59.3627 Z M47.898,61.2957 L32.519,61.2957 C31.985,61.2957 31.552,60.8637 31.552,60.3287 L31.552,35.4277 C31.552,34.8927 31.985,34.4607 32.519,34.4607 L47.898,34.4607 C48.432,34.4607 48.865,34.8927 48.865,35.4277 L48.865,60.3287 C48.865,60.8637 48.432,61.2957 47.898,61.2957 Z" id="Fill-11" fill="#083555" mask="url(#mask-6)"></path>
                    <path d="M69.1225,60.4414 C69.1155,60.0334 69.4475,59.7144 69.8495,59.7144 C70.2515,59.7144 70.5765,60.0334 70.5765,60.4344 C70.5765,60.8434 70.2585,61.1624 69.8495,61.1624 C69.4475,61.1624 69.1225,60.8504 69.1225,60.4414" id="Fill-13" fill="#00ADDA" mask="url(#mask-6)"></path>
                    <path d="M72.5307,60.4414 C72.5237,60.0334 72.8567,59.7144 73.2587,59.7144 C73.6597,59.7144 73.9847,60.0334 73.9847,60.4344 C73.9847,60.8434 73.6667,61.1624 73.2587,61.1624 C72.8567,61.1624 72.5307,60.8504 72.5307,60.4414" id="Fill-14" fill="#00ADDA" mask="url(#mask-6)"></path>
                    <path d="M75.9331,60.4414 C75.9261,60.0334 76.2581,59.7144 76.6601,59.7144 C77.0611,59.7144 77.3871,60.0334 77.3871,60.4344 C77.3871,60.8434 77.0691,61.1624 76.6601,61.1624 C76.2581,61.1624 75.9331,60.8504 75.9331,60.4414" id="Fill-15" fill="#00ADDA" mask="url(#mask-6)"></path>
                    <path d="M79.3423,60.4414 C79.3353,60.0334 79.6683,59.7144 80.0703,59.7144 C80.4713,59.7144 80.7963,60.0334 80.7963,60.4344 C80.7963,60.8434 80.4783,61.1624 80.0703,61.1624 C79.6683,61.1624 79.3423,60.8504 79.3423,60.4414" id="Fill-16" fill="#00ADDA" mask="url(#mask-6)"></path>
                    <path d="M44.9829,48.335 C44.9829,49.029 44.4199,49.593 43.7249,49.593 C43.0309,49.593 42.4669,49.029 42.4669,48.335 C42.4669,47.641 43.0309,47.078 43.7249,47.078 C44.4199,47.078 44.9829,47.641 44.9829,48.335" id="Fill-17" fill="#00ADD9" mask="url(#mask-6)"></path>
                    <path d="M2.71050543e-20,60.4414 C-0.007,60.0334 0.326,59.7144 0.727,59.7144 C1.128,59.7144 1.454,60.0334 1.454,60.4344 C1.454,60.8434 1.136,61.1624 0.727,61.1624 C0.326,61.1624 2.71050543e-20,60.8504 2.71050543e-20,60.4414" id="Fill-18" fill="#00ADDA" mask="url(#mask-6)"></path>
                    <path d="M3.4087,60.4414 C3.4017,60.0334 3.7347,59.7144 4.1357,59.7144 C4.5367,59.7144 4.8627,60.0334 4.8627,60.4344 C4.8627,60.8434 4.5437,61.1624 4.1357,61.1624 C3.7347,61.1624 3.4087,60.8504 3.4087,60.4414" id="Fill-19" fill="#00ADDA" mask="url(#mask-6)"></path>
                    <path d="M6.8105,60.4414 C6.8035,60.0334 7.1365,59.7144 7.5375,59.7144 C7.9385,59.7144 8.2645,60.0334 8.2645,60.4344 C8.2645,60.8434 7.9465,61.1624 7.5375,61.1624 C7.1365,61.1624 6.8105,60.8504 6.8105,60.4414" id="Fill-20" fill="#00ADDA" mask="url(#mask-6)"></path>
                    <path d="M10.2202,60.4414 C10.2132,60.0334 10.5462,59.7144 10.9472,59.7144 C11.3482,59.7144 11.6742,60.0334 11.6742,60.4344 C11.6742,60.8434 11.3562,61.1624 10.9472,61.1624 C10.5462,61.1624 10.2202,60.8504 10.2202,60.4414" id="Fill-21" fill="#00ADDA" mask="url(#mask-6)"></path>
                </g>
            </g>
        </g>
    </g>
</svg>