<?xml version="1.0" encoding="UTF-8"?>
<svg width="87px" height="69px" viewBox="0 0 87 69" version="1.1" xmlns="http://www.w3.org/2000/svg" xmlns:xlink="http://www.w3.org/1999/xlink">
    <!-- Generator: Sketch 48.2 (47327) - http://www.bohemiancoding.com/sketch -->
    <title>Page 1</title>
    <desc>Created with Sketch.</desc>
    <defs>
        <polygon id="path-1" points="0.67576012 0.657856416 8.253 0.657856416 8.253 3.4266 0.67576012 3.4266"></polygon>
        <polygon id="path-3" points="0 0.170666671 7.57803878 0.170666671 7.57803878 2.9393 0 2.9393"></polygon>
    </defs>
    <g id="Home" stroke="none" stroke-width="1" fill="none" fill-rule="evenodd" transform="translate(-585.000000, -989.000000)">
        <g id="Page-1" transform="translate(585.000000, 989.000000)">
            <path d="M27.2756,54.6023 L28.2136,55.2693 C30.1946,56.6753 34.1196,59.1003 38.1606,59.5463 L39.0176,59.6413 L39.0396,66.3573 L46.7956,66.3353 L46.7726,59.1933 L47.4816,58.9953 C54.6116,57.0023 58.5386,51.7833 58.5386,44.3013 C58.5386,35.4713 51.8256,31.6233 45.9776,29.2593 C39.5086,26.6043 37.6366,25.0143 37.6286,22.1703 C37.6266,21.3523 37.9226,17.2683 44.0116,17.2503 C44.0296,17.2503 44.0476,17.2503 44.0656,17.2503 C48.5996,17.2503 51.4556,18.8723 52.6766,19.5653 L54.2286,20.4463 L57.1626,12.6343 L56.0496,11.9863 C53.6206,10.5713 50.9646,9.7123 47.9346,9.3603 L47.0826,9.2613 L47.0606,1.9393 L39.3806,1.9613 L39.4026,9.7653 L38.6916,9.9613 C32.1756,11.7633 28.1386,16.7953 28.1576,23.0943 C28.1796,31.1403 34.8986,34.8373 41.4676,37.3913 C46.8766,39.5653 48.9826,41.6573 48.9916,44.8533 C48.9966,46.5623 48.2386,48.0813 46.8546,49.1313 C45.5346,50.1343 43.7306,50.6673 41.6396,50.6733 L41.5956,50.6733 C38.1776,50.6743 34.4886,49.5813 31.7176,47.7453 L30.0916,46.6673 L27.2756,54.6023 Z M37.1126,68.2963 L37.0896,61.3483 C32.9376,60.6433 29.0896,58.2633 27.0946,56.8463 L24.9636,55.3323 L29.0976,43.6873 L32.7856,46.1323 C35.2626,47.7733 38.5736,48.7403 41.6346,48.7403 C43.3016,48.7353 44.7026,48.3383 45.6846,47.5913 C46.5866,46.9073 47.0606,45.9623 47.0576,44.8593 C47.0536,43.3403 46.5626,41.5243 40.7556,39.1893 C33.5896,36.4033 26.2496,32.3083 26.2236,23.1003 C26.2036,16.1243 30.4906,10.5173 37.4646,8.3083 L37.4416,0.0333 L48.9896,0.0003 L49.0096,7.5523 C51.9616,7.9913 54.5906,8.8983 57.0236,10.3153 L59.5466,11.7843 L55.2436,23.2463 L51.7216,21.2473 C50.6326,20.6293 48.0886,19.1843 44.0656,19.1843 L44.0166,19.1843 C39.9886,19.1953 39.5596,21.2723 39.5616,22.1653 C39.5666,23.5553 40.0816,24.7483 46.7076,27.4683 C53.1136,30.0593 60.4716,34.3153 60.4716,44.3013 C60.4716,52.3563 56.1976,58.2753 48.7116,60.6463 L48.7346,68.2633 L37.1126,68.2963 Z" id="Fill-1" fill="#003555"></path>
            <polygon id="Fill-3" fill="#00ADDA" points="71.1369 1.3679 67.0429 6.1919 66.7209 5.9179 70.8139 1.0939"></polygon>
            <path d="M67.0432,6.8366 C66.8912,6.8366 66.7422,6.7826 66.6262,6.6836 L66.3032,6.4086 C66.0322,6.1776 65.9992,5.7716 66.2302,5.5006 L70.3232,0.6766 C70.4332,0.5456 70.5912,0.4656 70.7622,0.4516 C70.9342,0.4366 71.1012,0.4916 71.2302,0.6026 L71.5542,0.8766 C71.8252,1.1076 71.8582,1.5136 71.6292,1.7846 L67.5352,6.6096 C67.4252,6.7396 67.2672,6.8206 67.0962,6.8346 C67.0782,6.8366 67.0612,6.8366 67.0432,6.8366" id="Fill-5" fill="#00ADDA"></path>
            <polygon id="Fill-7" fill="#00ADDA" points="80.6428 12.9192 75.1558 16.0612 74.9448 15.6932 80.4328 12.5512"></polygon>
            <path d="M75.1555,16.7058 C75.0975,16.7058 75.0415,16.6978 74.9855,16.6828 C74.8205,16.6378 74.6795,16.5298 74.5955,16.3808 L74.3855,16.0128 C74.2095,15.7048 74.3155,15.3108 74.6245,15.1338 L80.1125,11.9918 C80.2605,11.9068 80.4365,11.8838 80.6015,11.9288 C80.7665,11.9738 80.9065,12.0818 80.9925,12.2308 L81.2025,12.5998 C81.3795,12.9078 81.2725,13.3018 80.9635,13.4788 L75.4755,16.6208 C75.3775,16.6768 75.2665,16.7058 75.1555,16.7058" id="Fill-9" fill="#00ADDA"></path>
            <polygon id="Fill-11" fill="#00ADDA" points="85.6086 27.0168 79.3906 28.0788 79.3206 27.6618 85.5386 26.5998"></polygon>
            <g id="Group-15" transform="translate(78.000000, 25.296800)">
                <mask id="mask-2" fill="white">
                    <use xlink:href="#path-1"></use>
                </mask>
                <g id="Clip-14"></g>
                <path d="M1.3908,3.4266 C1.2578,3.4266 1.1268,3.3856 1.0178,3.3076 C0.8778,3.2086 0.7838,3.0576 0.7548,2.8886 L0.6848,2.4716 C0.6258,2.1216 0.8618,1.7896 1.2118,1.7296 L7.4298,0.6676 C7.5988,0.6376 7.7728,0.6776 7.9118,0.7776 C8.0518,0.8766 8.1458,1.0266 8.1738,1.1956 L8.2448,1.6136 C8.3038,1.9636 8.0678,2.2956 7.7168,2.3556 L1.4988,3.4176 C1.4628,3.4236 1.4268,3.4266 1.3908,3.4266" id="Fill-13" fill="#00ADDA" mask="url(#mask-2)"></path>
            </g>
            <polygon id="Fill-16" fill="#00ADDA" points="85.4738 41.9939 79.2558 40.8649 79.3308 40.4489 85.5488 41.5769"></polygon>
            <path d="M85.4738,42.6384 C85.4358,42.6384 85.3978,42.6354 85.3588,42.6284 L79.1408,41.4994 C78.7908,41.4354 78.5588,41.1004 78.6218,40.7504 L78.6978,40.3334 C78.7278,40.1654 78.8238,40.0154 78.9638,39.9184 C79.1058,39.8214 79.2778,39.7844 79.4468,39.8144 L85.6648,40.9434 C86.0148,41.0064 86.2458,41.3424 86.1838,41.6924 L86.1088,42.1084 C86.0778,42.2774 85.9818,42.4264 85.8408,42.5234 C85.7328,42.5984 85.6038,42.6384 85.4738,42.6384" id="Fill-18" fill="#00ADDA"></path>
            <polygon id="Fill-20" fill="#00ADDA" points="80.2102 55.9948 74.7672 52.8078 74.9802 52.4438 80.4242 55.6298"></polygon>
            <path d="M80.2092,56.6394 C80.0982,56.6394 79.9862,56.6114 79.8842,56.5514 L74.4402,53.3644 C74.1332,53.1844 74.0302,52.7904 74.2102,52.4834 L74.4232,52.1184 C74.6032,51.8104 74.9972,51.7074 75.3052,51.8884 L80.7492,55.0744 C80.8962,55.1604 81.0042,55.3024 81.0472,55.4674 C81.0902,55.6324 81.0652,55.8084 80.9802,55.9564 L80.7662,56.3214 C80.6452,56.5254 80.4302,56.6394 80.2092,56.6394" id="Fill-22" fill="#00ADDA"></path>
            <polygon id="Fill-24" fill="#00ADDA" points="70.4914 67.3679 66.4414 62.4999 66.7674 62.2279 70.8174 67.0969"></polygon>
            <path d="M70.4914,68.0124 C70.4714,68.0124 70.4524,68.0114 70.4324,68.0094 C70.2624,67.9934 70.1044,67.9114 69.9954,67.7804 L65.9454,62.9114 C65.7184,62.6374 65.7564,62.2314 66.0294,62.0044 L66.3554,61.7334 C66.4864,61.6234 66.6574,61.5724 66.8264,61.5864 C66.9964,61.6024 67.1534,61.6844 67.2634,61.8164 L71.3124,66.6844 C71.5404,66.9574 71.5034,67.3644 71.2294,67.5914 L70.9034,67.8634 C70.7874,67.9604 70.6414,68.0124 70.4914,68.0124" id="Fill-26" fill="#00ADDA"></path>
            <polygon id="Fill-28" fill="#00ADDA" points="15.1164 66.8205 19.2104 61.9965 19.5324 62.2705 15.4394 67.0945"></polygon>
            <path d="M15.4396,67.739 C15.2916,67.739 15.1436,67.689 15.0226,67.586 L14.6996,67.312 C14.5696,67.201 14.4876,67.044 14.4736,66.873 C14.4606,66.703 14.5136,66.534 14.6246,66.404 L18.7176,61.579 C18.8286,61.448 18.9866,61.368 19.1576,61.354 C19.3276,61.339 19.4966,61.395 19.6266,61.505 L19.9506,61.78 C20.2206,62.01 20.2536,62.416 20.0236,62.688 L15.9296,67.511 C15.8026,67.662 15.6216,67.739 15.4396,67.739" id="Fill-30" fill="#00ADDA"></path>
            <polygon id="Fill-32" fill="#00ADDA" points="5.6105 55.2707 11.0975 52.1287 11.3075 52.4967 5.8205 55.6387"></polygon>
            <path d="M5.8205,56.2834 C5.7635,56.2834 5.7065,56.2764 5.6505,56.2614 C5.4855,56.2154 5.3445,56.1064 5.2595,55.9584 L5.0495,55.5904 C4.8745,55.2814 4.9805,54.8874 5.2905,54.7114 L10.7775,51.5694 C11.0885,51.3924 11.4805,51.4994 11.6565,51.8084 L11.8675,52.1754 C11.9525,52.3244 11.9755,52.5004 11.9305,52.6644 C11.8855,52.8294 11.7765,52.9704 11.6295,53.0554 L6.1405,56.1984 C6.0425,56.2544 5.9315,56.2834 5.8205,56.2834" id="Fill-34" fill="#00ADDA"></path>
            <polygon id="Fill-36" fill="#00ADDA" points="0.6447 41.1745 6.8627 40.1125 6.9337 40.5295 0.7157 41.5915"></polygon>
            <g id="Group-40" transform="translate(0.000000, 39.296800)">
                <mask id="mask-4" fill="white">
                    <use xlink:href="#path-3"></use>
                </mask>
                <g id="Clip-39"></g>
                <path d="M0.716,2.9393 C0.583,2.9393 0.452,2.8983 0.343,2.8203 C0.203,2.7223 0.109,2.5713 0.08,2.4023 L0.009,1.9853 C-0.051,1.6353 0.186,1.3023 0.536,1.2423 L6.754,0.1803 C6.924,0.1503 7.096,0.1913 7.235,0.2903 C7.375,0.3883 7.469,0.5393 7.498,0.7083 L7.569,1.1253 C7.628,1.4753 7.392,1.8083 7.041,1.8683 L0.823,2.9303 C0.787,2.9363 0.751,2.9393 0.716,2.9393" id="Fill-38" fill="#00ADDA" mask="url(#mask-4)"></path>
            </g>
            <polygon id="Fill-41" fill="#00ADDA" points="0.7795 26.1965 6.9975 27.3255 6.9215 27.7415 0.7035 26.6135"></polygon>
            <path d="M6.9221,28.3864 C6.8841,28.3864 6.8451,28.3834 6.8071,28.3764 L0.5881,27.2474 C0.2381,27.1844 0.0071,26.8494 0.0691,26.4984 L0.1451,26.0814 C0.1751,25.9134 0.2721,25.7644 0.4121,25.6664 C0.5531,25.5694 0.7261,25.5324 0.8951,25.5624 L7.1121,26.6914 C7.4621,26.7544 7.6941,27.0904 7.6311,27.4404 L7.5561,27.8564 C7.5261,28.0254 7.4301,28.1744 7.2891,28.2714 C7.1801,28.3464 7.0521,28.3864 6.9221,28.3864" id="Fill-43" fill="#00ADDA"></path>
            <polygon id="Fill-45" fill="#00ADDA" points="6.0432 12.1941 11.4852 15.3811 11.2722 15.7451 5.8292 12.5591"></polygon>
            <path d="M11.2726,16.3899 C11.1596,16.3899 11.0466,16.3599 10.9476,16.3019 L5.5026,13.1149 C5.3556,13.0289 5.2486,12.8869 5.2046,12.7219 C5.1616,12.5559 5.1856,12.3799 5.2726,12.2319 L5.4866,11.8679 C5.6676,11.5609 6.0616,11.4589 6.3686,11.6379 L11.8106,14.8249 C12.1186,15.0039 12.2216,15.3979 12.0426,15.7049 L11.8306,16.0699 C11.7436,16.2179 11.6026,16.3259 11.4366,16.3689 C11.3826,16.3829 11.3276,16.3899 11.2726,16.3899" id="Fill-47" fill="#00ADDA"></path>
            <polygon id="Fill-49" fill="#00ADDA" points="15.7619 0.8205 19.8119 5.6885 19.4859 5.9605 15.4359 1.0915"></polygon>
            <path d="M19.4855,6.6047 C19.4655,6.6047 19.4465,6.6037 19.4265,6.6017 C19.2565,6.5857 19.0995,6.5037 18.9895,6.3727 L14.9395,1.5037 C14.8315,1.3727 14.7775,1.2027 14.7935,1.0327 C14.8095,0.8627 14.8915,0.7057 15.0235,0.5957 L15.3495,0.3247 C15.6255,0.0967 16.0295,0.1347 16.2575,0.4087 L20.3075,5.2767 C20.5355,5.5497 20.4975,5.9567 20.2235,6.1837 L19.8975,6.4557 C19.7815,6.5527 19.6355,6.6047 19.4855,6.6047" id="Fill-51" fill="#00ADDA"></path>
            <path d="M31.8557,20.4665 C31.4417,20.2955 31.2677,19.8235 31.4427,19.4205 C31.6187,19.0165 32.0797,18.8295 32.4827,19.0045 C32.8927,19.1825 33.0737,19.6415 32.8957,20.0515 C32.7197,20.4545 32.2657,20.6455 31.8557,20.4665" id="Fill-53" fill="#00ADDA"></path>
            <path d="M33.7502,17.0608 C33.4152,16.7648 33.4032,16.2618 33.7002,15.9368 C33.9952,15.6128 34.4922,15.5848 34.8172,15.8808 C35.1482,16.1828 35.1702,16.6748 34.8692,17.0048 C34.5722,17.3298 34.0812,17.3628 33.7502,17.0608" id="Fill-55" fill="#00ADDA"></path>
            <path d="M36.6496,14.4465 C36.4276,14.0575 36.5776,13.5765 36.9626,13.3645 C37.3476,13.1525 37.8296,13.2855 38.0406,13.6715 C38.2566,14.0625 38.1196,14.5365 37.7276,14.7525 C37.3426,14.9645 36.8666,14.8375 36.6496,14.4465" id="Fill-57" fill="#00ADDA"></path>
            <path d="M54.3078,49.6838 C54.6928,49.9108 54.7978,50.4028 54.5678,50.7778 C54.3368,51.1508 53.8538,51.2718 53.4798,51.0418 C53.0988,50.8078 52.9848,50.3288 53.2188,49.9468 C53.4498,49.5728 53.9268,49.4488 54.3078,49.6838" id="Fill-59" fill="#00ADDA"></path>
            <path d="M51.9504,52.7873 C52.2404,53.1263 52.1804,53.6273 51.8414,53.9063 C51.5024,54.1863 51.0064,54.1433 50.7254,53.8043 C50.4424,53.4583 50.4904,52.9683 50.8354,52.6833 C51.1734,52.4053 51.6664,52.4413 51.9504,52.7873" id="Fill-61" fill="#00ADDA"></path>
            <path d="M48.7092,54.9651 C48.8752,55.3811 48.6582,55.8371 48.2462,55.9911 C47.8362,56.1471 47.3792,55.9471 47.2242,55.5361 C47.0642,55.1181 47.2682,54.6691 47.6862,54.5101 C48.0962,54.3541 48.5512,54.5471 48.7092,54.9651" id="Fill-63" fill="#00ADDA"></path>
        </g>
    </g>
</svg>