<?xml version="1.0" encoding="UTF-8"?>
<svg width="66px" height="76px" viewBox="0 0 66 76" version="1.1" xmlns="http://www.w3.org/2000/svg" xmlns:xlink="http://www.w3.org/1999/xlink">
    <!-- Generator: Sketch 48.2 (47327) - http://www.bohemiancoding.com/sketch -->
    <title>Page 1</title>
    <desc>Created with Sketch.</desc>
    <defs>
        <polygon id="path-1" points="0 0.697 55.8003463 0.697 55.8003463 50.4473 0 50.4473"></polygon>
    </defs>
    <g id="Home" stroke="none" stroke-width="1" fill="none" fill-rule="evenodd" transform="translate(-996.000000, -978.000000)">
        <g id="Group-4" transform="translate(0.000000, 740.000000)">
            <g id="Group" transform="translate(300.000000, 181.000000)">
                <g id="Page-1" transform="translate(696.000000, 56.000000)">
                    <path d="M11.8945,55.4467 C11.5165,55.4467 11.3055,55.5527 11.2375,55.6547 C11.1615,55.7687 11.1455,56.0527 11.3545,56.4797 L19.8225,73.7697 C20.0315,74.1967 20.2655,74.3597 20.4015,74.3687 C20.5355,74.3927 20.7915,74.2497 21.0575,73.8547 L24.8245,68.2487 L25.4765,68.4037 C31.3265,69.7937 37.4055,69.4337 43.0565,67.3617 C50.7255,64.5497 56.8385,58.9197 60.2705,51.5097 C63.5705,44.3937 64.0165,36.4517 61.5545,29.0377 L57.3195,30.5907 C59.3675,36.8687 58.9715,43.5877 56.1785,49.6137 C53.2515,55.9297 48.0405,60.7277 41.5025,63.1247 C37.5365,64.5797 33.2265,65.0487 29.0355,64.4827 L27.4955,64.2747 L31.7965,57.8747 C32.0605,57.4807 32.0835,57.1977 32.0235,57.0747 C31.9635,56.9517 31.7255,56.7967 31.2505,56.7637 L12.0435,55.4517 C11.9915,55.4477 11.9415,55.4467 11.8945,55.4467 M20.4175,76.3027 C20.3685,76.3027 20.3185,76.3007 20.2695,76.2987 C19.3735,76.2367 18.5785,75.6257 18.0855,74.6217 L9.6185,57.3307 C9.1255,56.3267 9.1315,55.3227 9.6325,54.5767 C10.1325,53.8307 11.0565,53.4507 12.1755,53.5217 L31.3835,54.8347 C32.4995,54.9117 33.3665,55.4187 33.7605,56.2247 C34.1555,57.0317 34.0245,58.0257 33.4015,58.9527 L30.8665,62.7257 C34.2425,62.9597 37.6595,62.4747 40.8365,61.3097 C46.8895,59.0907 51.7145,54.6487 54.4245,48.8007 C57.1355,42.9497 57.4065,36.3937 55.1885,30.3427 L54.8545,29.4347 L62.7185,26.5517 L63.0515,27.4597 C66.0425,35.6157 65.6775,44.4457 62.0245,52.3227 C58.3765,60.2007 51.8765,66.1867 43.7215,69.1767 C37.9245,71.3027 31.7025,71.7317 25.6855,70.4337 L22.6615,74.9337 C22.0705,75.8107 21.2605,76.3027 20.4175,76.3027" id="Fill-1" fill="#00ADDA"></path>
                    <g id="Group-5" transform="translate(0.000000, 0.303300)">
                        <mask id="mask-2" fill="white">
                            <use xlink:href="#path-1"></use>
                        </mask>
                        <g id="Clip-4"></g>
                        <path d="M32.5092,7.7693 C28.9452,7.7693 25.3962,8.3943 22.0072,9.6383 C14.3322,12.4513 8.2182,18.0803 4.7862,25.4893 C1.4872,32.6083 1.0402,40.5503 3.5002,47.9603 L7.7362,46.4083 C5.6882,40.1273 6.0842,33.4103 8.8772,27.3863 C11.8042,21.0693 17.0172,16.2703 23.5562,13.8733 C27.6012,12.3903 31.7932,11.9333 36.0192,12.5173 L37.5522,12.7283 L33.2592,19.1253 C32.9942,19.5193 32.9702,19.8023 33.0312,19.9243 C33.0912,20.0473 33.3292,20.2023 33.8022,20.2343 L53.0092,21.5483 C53.4862,21.5783 53.7402,21.4573 53.8162,21.3443 C53.8922,21.2303 53.9072,20.9473 53.6982,20.5223 L45.2302,3.2283 C45.0222,2.8023 44.7892,2.6403 44.6522,2.6303 C44.5072,2.6193 44.2612,2.7503 43.9982,3.1423 L40.2292,8.7503 L39.5782,8.5963 C37.2422,8.0443 34.8722,7.7693 32.5092,7.7693 Z M2.3372,50.4473 L2.0042,49.5403 C-0.9858,41.3873 -0.6198,32.5573 3.0312,24.6763 C6.6812,16.7983 13.1812,10.8133 21.3342,7.8243 C27.1252,5.7013 33.3432,5.2703 39.3672,6.5663 L42.3932,2.0633 C43.0172,1.1363 43.8842,0.6443 44.7862,0.7013 C45.6812,0.7633 46.4772,1.3743 46.9672,2.3793 L55.4342,19.6723 C55.9262,20.6733 55.9222,21.6763 55.4232,22.4213 C54.9222,23.1673 53.9922,23.5533 52.8782,23.4773 L33.6712,22.1633 C32.5562,22.0883 31.6892,21.5823 31.2942,20.7753 C30.8992,19.9683 31.0302,18.9743 31.6552,18.0463 L34.1902,14.2683 C30.8142,14.0243 27.4672,14.4993 24.2222,15.6883 C18.1682,17.9083 13.3422,22.3513 10.6322,28.1993 C7.9202,34.0483 7.6482,40.6023 9.8682,46.6563 L10.2002,47.5643 L2.3372,50.4473 Z" id="Fill-3" fill="#003555" mask="url(#mask-2)"></path>
                    </g>
                    <path d="M15.0468,45.7592 C14.6188,45.8882 14.1828,45.6322 14.0638,45.2092 C13.9428,44.7862 14.1828,44.3492 14.6058,44.2292 C15.0368,44.1072 15.4658,44.3472 15.5888,44.7782 C15.7078,45.2002 15.4768,45.6362 15.0468,45.7592" id="Fill-6" fill="#00ADDA"></path>
                    <path d="M14.2119,42.059 C13.7679,42.108 13.3879,41.776 13.3489,41.339 C13.3089,40.9 13.6249,40.514 14.0629,40.475 C14.5079,40.435 14.8869,40.751 14.9269,41.197 C14.9659,41.634 14.6579,42.019 14.2119,42.059" id="Fill-8" fill="#00ADDA"></path>
                    <path d="M14.0761,38.2973 C13.6301,38.2623 13.3181,37.8673 13.3591,37.4303 C13.4011,36.9923 13.7821,36.6713 14.2201,36.7133 C14.6641,36.7553 14.9781,37.1343 14.9361,37.5803 C14.8941,38.0183 14.5211,38.3393 14.0761,38.2973" id="Fill-10" fill="#00ADDA"></path>
                    <path d="M14.6245,34.578 C14.1935,34.46 13.9615,34.014 14.0845,33.592 C14.2075,33.17 14.6425,32.926 15.0635,33.05 C15.4935,33.175 15.7295,33.607 15.6045,34.036 C15.4805,34.458 15.0535,34.703 14.6245,34.578" id="Fill-12" fill="#00ADDA"></path>
                    <path d="M15.8544,31.0028 C15.4504,30.8108 15.3004,30.3298 15.4954,29.9358 C15.6914,29.5418 16.1624,29.3778 16.5564,29.5738 C16.9564,29.7728 17.1134,30.2398 16.9154,30.6408 C16.7194,31.0348 16.2554,31.2018 15.8544,31.0028" id="Fill-14" fill="#00ADDA"></path>
                    <path d="M17.7021,27.7318 C17.3401,27.4688 17.2811,26.9678 17.5451,26.6168 C17.8091,26.2658 18.3031,26.1908 18.6541,26.4558 C19.0111,26.7248 19.0791,27.2128 18.8111,27.5698 C18.5461,27.9218 18.0591,28.0008 17.7021,27.7318" id="Fill-16" fill="#00ADDA"></path>
                    <path d="M20.1396,24.8358 C19.8326,24.5108 19.8656,24.0078 20.1906,23.7108 C20.5146,23.4148 21.0136,23.4318 21.3106,23.7558 C21.6116,24.0868 21.5886,24.5798 21.2596,24.8808 C20.9346,25.1778 20.4416,25.1658 20.1396,24.8358" id="Fill-18" fill="#00ADDA"></path>
                </g>
            </g>
        </g>
    </g>
</svg>