<?xml version="1.0" encoding="UTF-8"?>
<svg width="82px" height="65px" viewBox="0 0 82 65" version="1.1" xmlns="http://www.w3.org/2000/svg" xmlns:xlink="http://www.w3.org/1999/xlink">
    <!-- Generator: Sketch 48.2 (47327) - http://www.bohemiancoding.com/sketch -->
    <title>Page 1</title>
    <desc>Created with Sketch.</desc>
    <defs>
        <polygon id="path-1" points="0 0.25 81.9559 0.25 81.9559 65 0 65"></polygon>
    </defs>
    <g id="Home" stroke="none" stroke-width="1" fill="none" fill-rule="evenodd" transform="translate(-1390.000000, -988.000000)">
        <g id="Group-4" transform="translate(0.000000, 740.000000)">
            <g id="Group" transform="translate(300.000000, 181.000000)">
                <g id="Page-1" transform="translate(1090.000000, 66.000000)">
                    <polygon id="Fill-1" fill="#FFFFFF" points="5.217 57.2176 18.51 57.2176 18.51 43.9236 5.217 43.9236"></polygon>
                    <g id="Group-38" transform="translate(0.000000, 0.749600)">
                        <mask id="mask-2" fill="white">
                            <use xlink:href="#path-1"></use>
                        </mask>
                        <g id="Clip-3"></g>
                        <path d="M6.184,55.501 L17.544,55.501 L17.544,44.141 L6.184,44.141 L6.184,55.501 Z M18.51,57.435 L5.217,57.435 C4.683,57.435 4.25,57.001 4.25,56.468 L4.25,43.174 C4.25,42.641 4.683,42.207 5.217,42.207 L18.51,42.207 C19.045,42.207 19.477,42.641 19.477,43.174 L19.477,56.468 C19.477,57.001 19.045,57.435 18.51,57.435 Z" id="Fill-2" fill="#003555" mask="url(#mask-2)"></path>
                        <polygon id="Fill-4" fill="#FFFFFF" mask="url(#mask-2)" points="23.452 56.468 36.745 56.468 36.745 26.557 23.452 26.557"></polygon>
                        <path d="M24.419,55.501 L35.779,55.501 L35.779,27.524 L24.419,27.524 L24.419,55.501 Z M36.745,57.435 L23.452,57.435 C22.918,57.435 22.485,57.001 22.485,56.468 L22.485,26.558 C22.485,26.024 22.918,25.591 23.452,25.591 L36.745,25.591 C37.279,25.591 37.712,26.024 37.712,26.558 L37.712,56.468 C37.712,57.001 37.279,57.435 36.745,57.435 Z" id="Fill-5" fill="#00ADDA" mask="url(#mask-2)"></path>
                        <polygon id="Fill-6" fill="#FFFFFF" mask="url(#mask-2)" points="41.687 56.468 54.98 56.468 54.98 36.528 41.687 36.528"></polygon>
                        <path d="M42.653,55.501 L54.013,55.501 L54.013,37.494 L42.653,37.494 L42.653,55.501 Z M54.98,57.435 L41.686,57.435 C41.153,57.435 40.719,57.001 40.719,56.468 L40.719,36.528 C40.719,35.993 41.153,35.561 41.686,35.561 L54.98,35.561 C55.513,35.561 55.947,35.993 55.947,36.528 L55.947,56.468 C55.947,57.001 55.513,57.435 54.98,57.435 Z" id="Fill-7" fill="#003555" mask="url(#mask-2)"></path>
                        <polygon id="Fill-8" fill="#FFFFFF" mask="url(#mask-2)" points="59.921 56.468 73.215 56.468 73.215 21.019 59.921 21.019"></polygon>
                        <path d="M60.888,55.501 L72.248,55.501 L72.248,21.985 L60.888,21.985 L60.888,55.501 Z M73.215,57.435 L59.922,57.435 C59.388,57.435 58.955,57.001 58.955,56.468 L58.955,21.018 C58.955,20.485 59.388,20.051 59.922,20.051 L73.215,20.051 C73.749,20.051 74.182,20.485 74.182,21.018 L74.182,56.468 C74.182,57.001 73.749,57.435 73.215,57.435 Z" id="Fill-9" fill="#00ADDA" mask="url(#mask-2)"></path>
                        <polygon id="Fill-10" fill="#003555" mask="url(#mask-2)" points="66.6491 13.0329 64.7491 12.6729 66.4261 3.8269 57.5811 2.1509 57.9401 0.2499 68.6861 2.2869"></polygon>
                        <path d="M42.9567,20.7834 C42.6477,20.7834 42.3447,20.6364 42.1567,20.3614 L33.8807,8.2134 L20.4377,17.3714 L19.3487,15.7744 L33.5907,6.0714 C34.0327,5.7704 34.6347,5.8844 34.9347,6.3254 L43.2107,18.4734 L67.0117,2.2584 L68.1007,3.8554 L43.5007,20.6154 C43.3337,20.7294 43.1437,20.7834 42.9567,20.7834" id="Fill-11" fill="#003555" mask="url(#mask-2)"></path>
                        <path d="M13.4205,21.9504 C13.1115,21.9504 12.8075,21.8024 12.6205,21.5274 C12.3195,21.0864 12.4345,20.4854 12.8755,20.1844 L16.7595,17.5374 C17.2015,17.2374 17.8025,17.3504 18.1025,17.7924 C18.4035,18.2334 18.2895,18.8354 17.8485,19.1364 L13.9635,21.7824 C13.7975,21.8954 13.6075,21.9504 13.4205,21.9504" id="Fill-12" fill="#00ADDA" mask="url(#mask-2)"></path>
                        <path d="M7.6769,25.8635 C7.3679,25.8635 7.0639,25.7165 6.8769,25.4415 C6.5759,24.9995 6.6909,24.3985 7.1319,24.0975 L9.7209,22.3335 C10.1629,22.0325 10.7639,22.1465 11.0639,22.5885 C11.3649,23.0295 11.2509,23.6305 10.8099,23.9315 L8.2199,25.6955 C8.0529,25.8085 7.8639,25.8635 7.6769,25.8635" id="Fill-13" fill="#00ADDA" mask="url(#mask-2)"></path>
                        <path d="M3.0631,29.007 C2.7541,29.007 2.4501,28.859 2.2631,28.584 C1.9621,28.143 2.0761,27.542 2.5181,27.241 L4.4361,25.934 C4.8771,25.633 5.4791,25.747 5.7791,26.189 C6.0801,26.63 5.9661,27.231 5.5241,27.532 L3.6061,28.839 C3.4391,28.952 3.2501,29.007 3.0631,29.007" id="Fill-14" fill="#00ADDA" mask="url(#mask-2)"></path>
                        <path d="M0.0001,64.2111 C-0.0079,63.7641 0.3561,63.4151 0.7961,63.4151 C1.2351,63.4151 1.5921,63.7641 1.5921,64.2031 C1.5921,64.6501 1.2431,65.0001 0.7961,65.0001 C0.3561,65.0001 0.0001,64.6581 0.0001,64.2111" id="Fill-15" fill="#00ADDA" mask="url(#mask-2)"></path>
                        <path d="M3.6535,64.2111 C3.6455,63.7641 4.0095,63.4151 4.4495,63.4151 C4.8885,63.4151 5.2455,63.7641 5.2455,64.2031 C5.2455,64.6501 4.8965,65.0001 4.4495,65.0001 C4.0095,65.0001 3.6535,64.6581 3.6535,64.2111" id="Fill-16" fill="#00ADDA" mask="url(#mask-2)"></path>
                        <path d="M7.3058,64.2111 C7.2978,63.7641 7.6618,63.4151 8.1018,63.4151 C8.5418,63.4151 8.8978,63.7641 8.8978,64.2031 C8.8978,64.6501 8.5488,65.0001 8.1018,65.0001 C7.6618,65.0001 7.3058,64.6581 7.3058,64.2111" id="Fill-17" fill="#00ADDA" mask="url(#mask-2)"></path>
                        <path d="M10.9591,64.2111 C10.9511,63.7641 11.3151,63.4151 11.7551,63.4151 C12.1941,63.4151 12.5511,63.7641 12.5511,64.2031 C12.5511,64.6501 12.2021,65.0001 11.7551,65.0001 C11.3151,65.0001 10.9591,64.6581 10.9591,64.2111" id="Fill-18" fill="#00ADDA" mask="url(#mask-2)"></path>
                        <path d="M14.6115,64.2111 C14.6045,63.7641 14.9675,63.4151 15.4075,63.4151 C15.8475,63.4151 16.2035,63.7641 16.2035,64.2031 C16.2035,64.6501 15.8555,65.0001 15.4075,65.0001 C14.9675,65.0001 14.6115,64.6581 14.6115,64.2111" id="Fill-19" fill="#00ADDA" mask="url(#mask-2)"></path>
                        <path d="M18.2648,64.2111 C18.2568,63.7641 18.6208,63.4151 19.0608,63.4151 C19.5008,63.4151 19.8568,63.7641 19.8568,64.2031 C19.8568,64.6501 19.5078,65.0001 19.0608,65.0001 C18.6208,65.0001 18.2648,64.6581 18.2648,64.2111" id="Fill-20" fill="#00ADDA" mask="url(#mask-2)"></path>
                        <path d="M21.9176,64.2111 C21.9096,63.7641 22.2736,63.4151 22.7136,63.4151 C23.1526,63.4151 23.5096,63.7641 23.5096,64.2031 C23.5096,64.6501 23.1606,65.0001 22.7136,65.0001 C22.2736,65.0001 21.9176,64.6581 21.9176,64.2111" id="Fill-21" fill="#00ADDA" mask="url(#mask-2)"></path>
                        <path d="M25.5704,64.2111 C25.5624,63.7641 25.9264,63.4151 26.3664,63.4151 C26.8064,63.4151 27.1624,63.7641 27.1624,64.2031 C27.1624,64.6501 26.8144,65.0001 26.3664,65.0001 C25.9264,65.0001 25.5704,64.6581 25.5704,64.2111" id="Fill-22" fill="#00ADDA" mask="url(#mask-2)"></path>
                        <path d="M29.2233,64.2111 C29.2153,63.7641 29.5793,63.4151 30.0193,63.4151 C30.4583,63.4151 30.8153,63.7641 30.8153,64.2031 C30.8153,64.6501 30.4663,65.0001 30.0193,65.0001 C29.5793,65.0001 29.2233,64.6581 29.2233,64.2111" id="Fill-23" fill="#00ADDA" mask="url(#mask-2)"></path>
                        <path d="M32.8766,64.2111 C32.8686,63.7641 33.2326,63.4151 33.6726,63.4151 C34.1116,63.4151 34.4686,63.7641 34.4686,64.2031 C34.4686,64.6501 34.1196,65.0001 33.6726,65.0001 C33.2326,65.0001 32.8766,64.6581 32.8766,64.2111" id="Fill-24" fill="#00ADDA" mask="url(#mask-2)"></path>
                        <path d="M36.5294,64.2111 C36.5214,63.7641 36.8854,63.4151 37.3254,63.4151 C37.7654,63.4151 38.1214,63.7641 38.1214,64.2031 C38.1214,64.6501 37.7734,65.0001 37.3254,65.0001 C36.8854,65.0001 36.5294,64.6581 36.5294,64.2111" id="Fill-25" fill="#00ADDA" mask="url(#mask-2)"></path>
                        <path d="M40.1823,64.2111 C40.1743,63.7641 40.5383,63.4151 40.9783,63.4151 C41.4173,63.4151 41.7743,63.7641 41.7743,64.2031 C41.7743,64.6501 41.4253,65.0001 40.9783,65.0001 C40.5383,65.0001 40.1823,64.6581 40.1823,64.2111" id="Fill-26" fill="#00ADDA" mask="url(#mask-2)"></path>
                        <path d="M43.8356,64.2111 C43.8276,63.7641 44.1916,63.4151 44.6316,63.4151 C45.0706,63.4151 45.4276,63.7641 45.4276,64.2031 C45.4276,64.6501 45.0786,65.0001 44.6316,65.0001 C44.1916,65.0001 43.8356,64.6581 43.8356,64.2111" id="Fill-27" fill="#00ADDA" mask="url(#mask-2)"></path>
                        <path d="M47.4879,64.2111 C47.4799,63.7641 47.8439,63.4151 48.2839,63.4151 C48.7229,63.4151 49.0799,63.7641 49.0799,64.2031 C49.0799,64.6501 48.7309,65.0001 48.2839,65.0001 C47.8439,65.0001 47.4879,64.6581 47.4879,64.2111" id="Fill-28" fill="#00ADDA" mask="url(#mask-2)"></path>
                        <path d="M51.1413,64.2111 C51.1333,63.7641 51.4973,63.4151 51.9373,63.4151 C52.3763,63.4151 52.7333,63.7641 52.7333,64.2031 C52.7333,64.6501 52.3843,65.0001 51.9373,65.0001 C51.4973,65.0001 51.1413,64.6581 51.1413,64.2111" id="Fill-29" fill="#00ADDA" mask="url(#mask-2)"></path>
                        <path d="M54.7936,64.2111 C54.7856,63.7641 55.1496,63.4151 55.5896,63.4151 C56.0286,63.4151 56.3856,63.7641 56.3856,64.2031 C56.3856,64.6501 56.0366,65.0001 55.5896,65.0001 C55.1496,65.0001 54.7936,64.6581 54.7936,64.2111" id="Fill-30" fill="#00ADDA" mask="url(#mask-2)"></path>
                        <path d="M58.4469,64.2111 C58.4389,63.7641 58.8029,63.4151 59.2429,63.4151 C59.6819,63.4151 60.0389,63.7641 60.0389,64.2031 C60.0389,64.6501 59.6899,65.0001 59.2429,65.0001 C58.8029,65.0001 58.4469,64.6581 58.4469,64.2111" id="Fill-31" fill="#00ADDA" mask="url(#mask-2)"></path>
                        <path d="M62.0993,64.2111 C62.0913,63.7641 62.4553,63.4151 62.8953,63.4151 C63.3343,63.4151 63.6913,63.7641 63.6913,64.2031 C63.6913,64.6501 63.3423,65.0001 62.8953,65.0001 C62.4553,65.0001 62.0993,64.6581 62.0993,64.2111" id="Fill-32" fill="#00ADDA" mask="url(#mask-2)"></path>
                        <path d="M65.7526,64.2111 C65.7446,63.7641 66.1086,63.4151 66.5486,63.4151 C66.9876,63.4151 67.3446,63.7641 67.3446,64.2031 C67.3446,64.6501 66.9956,65.0001 66.5486,65.0001 C66.1086,65.0001 65.7526,64.6581 65.7526,64.2111" id="Fill-33" fill="#00ADDA" mask="url(#mask-2)"></path>
                        <path d="M69.4059,64.2111 C69.3979,63.7641 69.7619,63.4151 70.2019,63.4151 C70.6409,63.4151 70.9979,63.7641 70.9979,64.2031 C70.9979,64.6501 70.6489,65.0001 70.2019,65.0001 C69.7619,65.0001 69.4059,64.6581 69.4059,64.2111" id="Fill-34" fill="#00ADDA" mask="url(#mask-2)"></path>
                        <path d="M73.0582,64.2111 C73.0502,63.7641 73.4142,63.4151 73.8542,63.4151 C74.2932,63.4151 74.6502,63.7641 74.6502,64.2031 C74.6502,64.6501 74.3012,65.0001 73.8542,65.0001 C73.4142,65.0001 73.0582,64.6581 73.0582,64.2111" id="Fill-35" fill="#00ADDA" mask="url(#mask-2)"></path>
                        <path d="M76.7116,64.2111 C76.7036,63.7641 77.0676,63.4151 77.5076,63.4151 C77.9466,63.4151 78.3036,63.7641 78.3036,64.2031 C78.3036,64.6501 77.9546,65.0001 77.5076,65.0001 C77.0676,65.0001 76.7116,64.6581 76.7116,64.2111" id="Fill-36" fill="#00ADDA" mask="url(#mask-2)"></path>
                        <path d="M80.3639,64.2111 C80.3559,63.7641 80.7199,63.4151 81.1599,63.4151 C81.5989,63.4151 81.9559,63.7641 81.9559,64.2031 C81.9559,64.6501 81.6069,65.0001 81.1599,65.0001 C80.7199,65.0001 80.3639,64.6581 80.3639,64.2111" id="Fill-37" fill="#00ADDA" mask="url(#mask-2)"></path>
                    </g>
                </g>
            </g>
        </g>
    </g>
</svg>