<?xml version="1.0" encoding="UTF-8"?>
<svg width="76px" height="76px" viewBox="0 0 76 76" version="1.1" xmlns="http://www.w3.org/2000/svg" xmlns:xlink="http://www.w3.org/1999/xlink">
    <!-- Generator: Sketch 48.2 (47327) - http://www.bohemiancoding.com/sketch -->
    <title>Page 1</title>
    <desc>Created with Sketch.</desc>
    <defs>
        <polygon id="path-1" points="0 0.0301 74.9698 0.0301 74.9698 75 0 75"></polygon>
        <polygon id="path-3" points="0.83705 0.953 40.7646379 0.953 40.7646379 40.8778 0.83705 40.8778"></polygon>
    </defs>
    <g id="Home" stroke="none" stroke-width="1" fill="none" fill-rule="evenodd" transform="translate(-381.000000, -978.000000)">
        <g id="Group-4" transform="translate(0.000000, 740.000000)">
            <g id="Group" transform="translate(300.000000, 181.000000)">
                <g id="Page-1" transform="translate(81.000000, 56.000000)">
                    <g id="Group-3" transform="translate(0.000000, 2.047300)">
                        <mask id="mask-2" fill="white">
                            <use xlink:href="#path-1"></use>
                        </mask>
                        <g id="Clip-2"></g>
                        <path d="M37.4848,75.0001 C16.8158,75.0001 -0.0002,58.1851 -0.0002,37.5151 C-0.0002,16.8461 16.8158,0.0301 37.4848,0.0301 C45.4678,0.0301 53.0888,2.5051 59.5228,7.1891 L58.3848,8.7521 C52.2838,4.3121 45.0568,1.9631 37.4848,1.9631 C17.8818,1.9631 1.9338,17.9121 1.9338,37.5151 C1.9338,57.1181 17.8818,73.0661 37.4848,73.0661 C57.0888,73.0661 73.0368,57.1181 73.0368,37.5151 C73.0368,29.9721 70.7048,22.7661 66.2928,16.6771 L67.8588,15.5421 C72.5108,21.9631 74.9698,29.5621 74.9698,37.5151 C74.9698,58.1851 58.1538,75.0001 37.4848,75.0001" id="Fill-1" fill="#00ADDA" mask="url(#mask-2)"></path>
                    </g>
                    <path d="M37.4848,12.0215 C22.2988,12.0215 9.9438,24.3755 9.9438,39.5625 C9.9438,54.7485 22.2988,67.1035 37.4848,67.1035 C52.6718,67.1035 65.0258,54.7485 65.0258,39.5625 C65.0258,24.3755 52.6718,12.0215 37.4848,12.0215 M37.4848,69.0365 C21.2328,69.0365 8.0108,55.8145 8.0108,39.5625 C8.0108,23.3105 21.2328,10.0875 37.4848,10.0875 C53.7368,10.0875 66.9598,23.3105 66.9598,39.5625 C66.9598,55.8145 53.7368,69.0365 37.4848,69.0365" id="Fill-4" fill="#00ADDA"></path>
                    <path d="M37.4848,19.8491 C26.6148,19.8491 17.7718,28.6921 17.7718,39.5621 C17.7718,50.4321 26.6148,59.2761 37.4848,59.2761 C48.3548,59.2761 57.1988,50.4321 57.1988,39.5621 C57.1988,28.6921 48.3548,19.8491 37.4848,19.8491 M37.4848,61.2091 C25.5488,61.2091 15.8378,51.4981 15.8378,39.5621 C15.8378,27.6261 25.5488,17.9151 37.4848,17.9151 C49.4218,17.9151 59.1318,27.6261 59.1318,39.5621 C59.1318,51.4981 49.4218,61.2091 37.4848,61.2091" id="Fill-6" fill="#00ADDA"></path>
                    <path d="M37.4848,28.001 C31.1098,28.001 25.9238,33.188 25.9238,39.563 C25.9238,45.937 31.1098,51.124 37.4848,51.124 C43.8598,51.124 49.0468,45.937 49.0468,39.563 C49.0468,33.188 43.8598,28.001 37.4848,28.001 M37.4848,53.057 C30.0438,53.057 23.9898,47.003 23.9898,39.563 C23.9898,32.121 30.0438,26.067 37.4848,26.067 C44.9258,26.067 50.9798,32.121 50.9798,39.563 C50.9798,47.003 44.9258,53.057 37.4848,53.057" id="Fill-8" fill="#00ADDA"></path>
                    <path d="M42.4575,39.562 C42.4575,42.308 40.2305,44.535 37.4845,44.535 C34.7385,44.535 32.5125,42.308 32.5125,39.562 C32.5125,36.816 34.7385,34.59 37.4845,34.59 C40.2305,34.59 42.4575,36.816 42.4575,39.562" id="Fill-10" fill="#FFFFFF"></path>
                    <path d="M37.4848,35.5571 C35.2768,35.5571 33.4798,37.3541 33.4798,39.5621 C33.4798,41.7711 35.2768,43.5681 37.4848,43.5681 C39.6938,43.5681 41.4908,41.7711 41.4908,39.5621 C41.4908,37.3541 39.6938,35.5571 37.4848,35.5571 M37.4848,45.5011 C34.2098,45.5011 31.5458,42.8361 31.5458,39.5621 C31.5458,36.2871 34.2098,33.6231 37.4848,33.6231 C40.7588,33.6231 43.4238,36.2871 43.4238,39.5621 C43.4238,42.8361 40.7588,45.5011 37.4848,45.5011" id="Fill-12" fill="#003555"></path>
                    <g id="Group-16" transform="translate(35.000000, 0.047300)">
                        <mask id="mask-4" fill="white">
                            <use xlink:href="#path-3"></use>
                        </mask>
                        <g id="Clip-15"></g>
                        <path d="M31.2143,16.4068 L25.3083,16.4068 L25.3083,10.5008 L30.4613,5.3488 L30.4613,9.9678 C30.4613,10.6788 31.0373,11.2558 31.7493,11.2558 L36.3663,11.2558 L31.2143,16.4068 Z M40.6663,9.4748 C40.4683,8.9938 39.9973,8.6798 39.4773,8.6798 L33.0363,8.6798 L33.0363,2.2398 C33.0363,1.7188 32.7243,1.2498 32.2413,1.0508 C31.7613,0.8518 31.2083,0.9608 30.8383,1.3298 L23.1103,9.0568 C22.8683,9.2978 22.7323,9.6258 22.7323,9.9668 L22.7323,17.1608 L1.2143,38.6788 C0.7113,39.1818 0.7113,39.9968 1.2143,40.4998 C1.4663,40.7518 1.7963,40.8778 2.1253,40.8778 C2.4553,40.8778 2.7843,40.7518 3.0363,40.4998 L24.5533,18.9828 L31.7473,18.9828 C32.0903,18.9828 32.4163,18.8468 32.6583,18.6048 L40.3873,10.8788 C40.7553,10.5108 40.8663,9.9568 40.6663,9.4748 Z" id="Fill-14" fill="#003555" mask="url(#mask-4)"></path>
                    </g>
                </g>
            </g>
        </g>
    </g>
</svg>